<?xml version="1.0" encoding="iso-8859-1"?>
<!-- Generator: Adobe Illustrator 19.1.0, SVG Export Plug-In . SVG Version: 6.00 Build 0)  -->
<!DOCTYPE svg PUBLIC "-//W3C//DTD SVG 1.1//EN" "http://www.w3.org/Graphics/SVG/1.1/DTD/svg11.dtd">
<svg version="1.1" id="Layer_1" xmlns="http://www.w3.org/2000/svg" xmlns:xlink="http://www.w3.org/1999/xlink" x="0px" y="0px"
	 viewBox="-1166 817.78 24 24" style="enable-background:new -1166 817.78 24 24;" xml:space="preserve">
<path style="fill:#0050FE;" d="M-1151.171,824.082c-0.738-0.034-0.96-0.04-2.829-0.04s-2.09,0.007-2.828,0.04
	c-1.899,0.087-2.783,0.986-2.87,2.87c-0.033,0.738-0.041,0.959-0.041,2.828c0,1.869,0.008,2.09,0.041,2.829
	c0.087,1.879,0.967,2.783,2.87,2.87c0.737,0.033,0.959,0.041,2.828,0.041c1.87,0,2.091-0.007,2.829-0.041
	c1.899-0.086,2.782-0.988,2.87-2.87c0.033-0.738,0.04-0.96,0.04-2.829s-0.007-2.09-0.04-2.828
	C-1148.389,825.069-1149.274,824.169-1151.171,824.082z M-1154,833.375c-1.985,0-3.595-1.609-3.595-3.595
	c0-1.985,1.61-3.594,3.595-3.594s3.595,1.609,3.595,3.594S-1152.015,833.375-1154,833.375z M-1150.263,826.884
	c-0.464,0-0.84-0.376-0.84-0.84s0.376-0.84,0.84-0.84c0.464,0,0.84,0.376,0.84,0.84
	C-1149.423,826.507-1149.799,826.884-1150.263,826.884z M-1151.667,829.78c0,1.289-1.045,2.333-2.333,2.333
	s-2.333-1.044-2.333-2.333s1.045-2.333,2.333-2.333S-1151.667,828.491-1151.667,829.78z M-1154,817.78c-6.627,0-12,5.373-12,12
	s5.373,12,12,12s12-5.373,12-12S-1147.373,817.78-1154,817.78z M-1147.042,832.666c-0.115,2.545-1.532,3.955-4.071,4.072
	c-0.747,0.034-0.986,0.042-2.887,0.042s-2.139-0.008-2.886-0.042c-2.544-0.117-3.955-1.529-4.072-4.072
	c-0.034-0.746-0.042-0.985-0.042-2.886s0.008-2.139,0.042-2.886c0.117-2.544,1.529-3.955,4.072-4.071
	c0.747-0.035,0.985-0.043,2.886-0.043s2.14,0.008,2.887,0.043c2.545,0.117,3.957,1.532,4.071,4.071
	c0.034,0.747,0.042,0.985,0.042,2.886S-1147.008,831.92-1147.042,832.666z"/>
</svg>
