<?xml version="1.0" encoding="iso-8859-1"?>
<!-- Generator: Adobe Illustrator 19.1.0, SVG Export Plug-In . SVG Version: 6.00 Build 0)  -->
<!DOCTYPE svg PUBLIC "-//W3C//DTD SVG 1.1//EN" "http://www.w3.org/Graphics/SVG/1.1/DTD/svg11.dtd">
<svg version="1.1" id="Layer_1" xmlns="http://www.w3.org/2000/svg" xmlns:xlink="http://www.w3.org/1999/xlink" x="0px" y="0px"
	 viewBox="-583 408.89 24 24" style="enable-background:new -583 408.89 24 24;" xml:space="preserve">
<path style="fill:#FFFFFF;" d="M-571,408.89c-6.627,0-12,5.373-12,12c0,6.627,5.373,12,12,12s12-5.373,12-12
	C-559,414.263-564.373,408.89-571,408.89z M-568.083,424.973c-1.145,0-2.177-0.472-2.919-1.229c-0.74,0.758-1.771,1.229-2.915,1.229
	c-2.255,0-4.083-1.828-4.083-4.083c0-2.255,1.828-4.083,4.083-4.083c1.144,0,2.175,0.472,2.915,1.229
	c0.742-0.758,1.774-1.229,2.919-1.229c2.255,0,4.083,1.828,4.083,4.083C-564,423.145-565.828,424.973-568.083,424.973z
	 M-565.167,420.89c0,1.608-1.308,2.917-2.916,2.917c-1.608,0-2.917-1.309-2.917-2.917c0-1.608,1.309-2.917,2.917-2.917
	C-566.475,417.973-565.167,419.282-565.167,420.89z"/>
</svg>
